<svg width="342.111" height="110.444" viewBox="-2 -2 342.111 110.444" xmlns="http://www.w3.org/2000/svg">
  <g id="svgGroup" stroke-linecap="round" fill-rule="nonzero" fill="#ffffff" stroke="#ffffff" stroke-width="0.5">
      <path d="M7.031 82.859L7.031 82.859Q5.785 82.859 4.895 82.281Q4.005 81.702 4.183 80.723L4.183 80.723Q5.518 73.603 6.452 66.261Q7.387 58.918 7.387 51.442L7.387 51.442Q7.387 44.856 6.942 39.516Q6.497 34.176 4.094 29.281L4.094 29.281Q3.649 28.302 3.382 27.590Q3.115 26.878 3.115 26.255L3.115 26.255Q3.115 24.564 5.117 22.962Q7.120 21.360 9.345 21.360L9.345 21.360Q12.460 21.360 13.617 25.276Q14.774 29.192 14.774 36.846L14.774 36.846Q14.774 46.013 13.706 52.822Q12.638 59.630 11.837 63.190L11.837 63.190L12.193 63.368Q13.973 58.651 16.509 54.557Q19.046 50.463 22.428 47.971Q25.810 45.479 30.260 45.479L30.260 45.479Q34.977 45.479 37.424 48.327Q39.872 51.175 39.872 55.358L39.872 55.358Q39.872 57.138 39.516 58.785Q39.160 60.431 38.715 61.944L38.715 61.944Q38.270 63.368 37.914 64.837Q37.558 66.305 37.558 67.818L37.558 67.818Q37.558 70.577 38.893 72.313Q40.228 74.048 42.453 74.760L42.453 74.760Q43.076 74.938 43.387 75.250Q43.699 75.561 43.699 76.362L43.699 76.362Q43.699 77.163 43.165 78.676Q42.631 80.189 41.207 81.480Q39.783 82.770 37.024 82.770L37.024 82.770Q33.464 82.770 31.506 80.234Q29.548 77.697 29.548 73.692L29.548 73.692Q29.548 71.734 29.948 69.687Q30.349 67.640 30.883 65.771L30.883 65.771Q31.328 63.902 31.684 62.256Q32.040 60.609 32.040 59.452L32.040 59.452Q32.040 55.358 27.768 55.358L27.768 55.358Q24.208 55.358 21.493 57.895Q18.779 60.431 16.866 64.303Q14.952 68.174 13.706 72.268L13.706 72.268L13.706 75.294Q13.706 78.587 11.792 80.723Q9.879 82.859 7.031 82.859ZM60.431 83.037L60.431 83.037Q55.091 83.037 51.843 79.700Q48.594 76.362 48.594 70.132L48.594 70.132Q48.594 65.682 50.329 61.277Q52.065 56.871 55.358 53.311Q58.651 49.751 63.279 47.615Q67.907 45.479 73.692 45.479L73.692 45.479Q79.032 45.479 82.814 47.304Q86.597 49.128 86.597 52.243L86.597 52.243Q86.597 53.044 86.419 54.335Q86.241 55.625 85.974 56.426L85.974 56.426Q85.707 57.138 85.218 57.717Q84.728 58.295 83.927 58.295L83.927 58.295Q83.571 58.295 82.592 58.028L82.592 58.028Q82.236 59.897 82.058 61.677Q81.880 63.457 81.880 65.237L81.880 65.237Q81.880 68.619 82.903 71.245Q83.927 73.870 86.953 74.493L86.953 74.493Q87.754 74.671 88.243 75.027Q88.733 75.383 88.733 76.540L88.733 76.540Q88.733 77.519 88.243 79.032Q87.754 80.545 86.374 81.747Q84.995 82.948 82.414 82.948L82.414 82.948Q78.943 82.948 77.074 80.412Q75.205 77.875 75.205 73.158L75.205 73.158Q72.802 77.519 69.108 80.278Q65.415 83.037 60.431 83.037ZM63.279 73.781L63.279 73.781Q66.839 73.781 69.553 71.556Q72.268 69.331 73.781 65.949L73.781 65.949Q74.760 63.813 75.294 61.277Q75.828 58.740 76.006 56.248L76.006 56.248Q74.493 55.536 72.535 55.091Q70.577 54.646 68.441 54.646L68.441 54.646Q63.012 54.646 59.496 57.850Q55.981 61.054 55.981 65.860L55.981 65.860Q55.981 69.420 57.939 71.601Q59.897 73.781 63.279 73.781ZM99.858 106.444L99.858 106.444Q97.188 106.444 95.675 104.976Q94.162 103.507 94.162 99.680L94.162 99.680Q94.162 97.099 94.740 93.183Q95.319 89.267 96.120 84.906L96.120 84.906Q96.743 81.435 97.322 77.608Q97.900 73.781 98.300 70.088Q98.701 66.394 98.701 63.457L98.701 63.457Q98.701 60.075 97.945 57.583Q97.188 55.091 94.874 54.379L94.874 54.379Q93.984 54.023 93.272 53.578Q92.560 53.133 92.560 52.154L92.560 52.154Q92.560 50.908 93.539 49.395Q94.518 47.882 96.343 46.770Q98.167 45.657 100.481 45.657L100.481 45.657Q103.507 45.657 104.664 47.749Q105.821 49.840 105.821 53.222L105.821 53.222Q105.821 54.201 105.732 55.225Q105.643 56.248 105.465 57.316L105.465 57.316Q108.046 52.332 112.273 48.906Q116.501 45.479 121.841 45.479L121.841 45.479Q127.181 45.479 130.251 49.084Q133.322 52.688 133.322 58.829L133.322 58.829Q133.322 63.368 131.898 67.685Q130.474 72.001 127.893 75.472Q125.312 78.943 121.707 80.990Q118.103 83.037 113.653 83.037L113.653 83.037Q110.449 83.037 108.046 81.925Q105.643 80.812 103.863 79.032L103.863 79.032Q103.507 81.346 103.195 84.639Q102.884 87.932 102.884 90.780L102.884 90.780Q102.884 94.073 103.641 95.942Q104.397 97.811 106.622 98.790L106.622 98.790Q107.601 99.235 107.601 100.214L107.601 100.214Q107.601 100.926 106.889 102.439Q106.177 103.952 104.531 105.198Q102.884 106.444 99.858 106.444ZM115.700 73.425L115.700 73.425Q120.773 73.425 123.532 70.221Q126.291 67.017 126.291 62.834L126.291 62.834Q126.291 59.185 124.333 57.183Q122.375 55.180 119.082 55.180L119.082 55.180Q115.700 55.180 113.119 57.183Q110.538 59.185 108.713 62.389Q106.889 65.593 105.732 69.242L105.732 69.242Q110.182 73.425 115.700 73.425ZM145.248 106.444L145.248 106.444Q142.578 106.444 141.065 104.976Q139.552 103.507 139.552 99.680L139.552 99.680Q139.552 97.099 140.131 93.183Q140.709 89.267 141.510 84.906L141.510 84.906Q142.133 81.435 142.712 77.608Q143.290 73.781 143.691 70.088Q144.091 66.394 144.091 63.457L144.091 63.457Q144.091 60.075 143.335 57.583Q142.578 55.091 140.264 54.379L140.264 54.379Q139.374 54.023 138.662 53.578Q137.950 53.133 137.950 52.154L137.950 52.154Q137.950 50.908 138.929 49.395Q139.908 47.882 141.733 46.770Q143.557 45.657 145.871 45.657L145.871 45.657Q148.897 45.657 150.054 47.749Q151.211 49.840 151.211 53.222L151.211 53.222Q151.211 54.201 151.122 55.225Q151.033 56.248 150.855 57.316L150.855 57.316Q153.436 52.332 157.663 48.906Q161.891 45.479 167.231 45.479L167.231 45.479Q172.571 45.479 175.642 49.084Q178.712 52.688 178.712 58.829L178.712 58.829Q178.712 63.368 177.288 67.685Q175.864 72.001 173.283 75.472Q170.702 78.943 167.098 80.990Q163.493 83.037 159.043 83.037L159.043 83.037Q155.839 83.037 153.436 81.925Q151.033 80.812 149.253 79.032L149.253 79.032Q148.897 81.346 148.586 84.639Q148.274 87.932 148.274 90.780L148.274 90.780Q148.274 94.073 149.031 95.942Q149.787 97.811 152.012 98.790L152.012 98.790Q152.991 99.235 152.991 100.214L152.991 100.214Q152.991 100.926 152.279 102.439Q151.567 103.952 149.921 105.198Q148.274 106.444 145.248 106.444ZM161.090 73.425L161.090 73.425Q166.163 73.425 168.922 70.221Q171.681 67.017 171.681 62.834L171.681 62.834Q171.681 59.185 169.723 57.183Q167.765 55.180 164.472 55.180L164.472 55.180Q161.090 55.180 158.509 57.183Q155.928 59.185 154.104 62.389Q152.279 65.593 151.122 69.242L151.122 69.242Q155.572 73.425 161.090 73.425ZM188.057 106.444L188.057 106.444Q184.408 106.444 181.783 104.486Q179.157 102.528 179.157 99.235L179.157 99.235Q179.157 96.654 180.715 94.830Q182.272 93.005 184.586 93.005L184.586 93.005Q185.654 93.005 186.099 93.361Q186.544 93.717 186.811 94.162L186.811 94.162Q187.523 95.319 188.458 96.165Q189.392 97.010 190.994 97.010L190.994 97.010Q193.130 97.010 195.133 95.497Q197.135 93.984 198.826 92.026L198.826 92.026Q200.339 90.335 202.475 87.176Q204.611 84.016 206.747 80.011L206.747 80.011Q204.789 81.702 203.098 82.459Q201.407 83.215 199.894 83.215L199.894 83.215Q198.025 83.215 196.245 81.836Q194.465 80.456 194.020 76.629L194.020 76.629Q193.753 73.692 192.997 70.132Q192.240 66.572 191.128 63.235Q190.015 59.897 188.413 57.583L188.413 57.583Q187.790 56.515 186.989 55.981Q186.188 55.447 184.675 55.269L184.675 55.269Q183.607 55.180 183.296 54.646Q182.984 54.112 182.984 52.955L182.984 52.955Q182.984 49.751 184.764 47.793Q186.544 45.835 189.570 45.835L189.570 45.835Q193.219 45.835 194.821 48.639Q196.423 51.442 197.580 55.447L197.580 55.447Q198.025 57.049 198.515 59.675Q199.004 62.300 199.405 65.326Q199.805 68.352 199.983 71.111L199.983 71.111Q200.072 73.069 202.208 73.069L202.208 73.069Q205.056 73.069 207.637 71.289Q210.218 69.509 211.865 66.661Q213.511 63.813 213.511 60.698L213.511 60.698Q213.511 58.918 213.066 57.494Q212.621 56.070 211.553 55.002L211.553 55.002Q210.663 53.934 210.129 53.267Q209.595 52.599 209.595 51.709L209.595 51.709Q209.595 50.196 211.019 48.861Q212.443 47.526 214.446 46.636Q216.448 45.746 217.961 45.746L217.961 45.746Q220.631 45.746 221.521 48.283Q222.411 50.819 221.966 53.845L221.966 53.845Q221.432 58.028 219.830 63.724Q218.228 69.420 215.692 75.650Q213.155 81.880 209.907 87.710Q206.658 93.539 203.009 97.900L203.009 97.900Q199.894 101.727 196.067 104.086Q192.240 106.444 188.057 106.444ZM232.201 82.859L232.201 82.859Q230.955 82.859 230.065 82.281Q229.175 81.702 229.353 80.723L229.353 80.723Q230.688 73.603 231.623 66.261Q232.557 58.918 232.557 51.442L232.557 51.442Q232.557 44.856 232.112 39.516Q231.667 34.176 229.264 29.281L229.264 29.281Q228.819 28.302 228.552 27.590Q228.285 26.878 228.285 26.255L228.285 26.255Q228.285 24.564 230.288 22.962Q232.290 21.360 234.515 21.360L234.515 21.360Q237.630 21.360 238.787 25.276Q239.944 29.192 239.944 36.846L239.944 36.846Q239.944 46.013 238.876 52.822Q237.808 59.630 237.007 63.190L237.007 63.190L237.363 63.368Q239.143 58.651 241.680 54.557Q244.216 50.463 247.598 47.971Q250.980 45.479 255.430 45.479L255.430 45.479Q260.147 45.479 262.595 48.327Q265.042 51.175 265.042 55.358L265.042 55.358Q265.042 57.138 264.686 58.785Q264.330 60.431 263.885 61.944L263.885 61.944Q263.440 63.368 263.084 64.837Q262.728 66.305 262.728 67.818L262.728 67.818Q262.728 70.577 264.063 72.313Q265.398 74.048 267.623 74.760L267.623 74.760Q268.246 74.938 268.558 75.250Q268.869 75.561 268.869 76.362L268.869 76.362Q268.869 77.163 268.335 78.676Q267.801 80.189 266.377 81.480Q264.953 82.770 262.194 82.770L262.194 82.770Q258.634 82.770 256.676 80.234Q254.718 77.697 254.718 73.692L254.718 73.692Q254.718 71.734 255.119 69.687Q255.519 67.640 256.053 65.771L256.053 65.771Q256.498 63.902 256.854 62.256Q257.210 60.609 257.210 59.452L257.210 59.452Q257.210 55.358 252.938 55.358L252.938 55.358Q249.378 55.358 246.663 57.895Q243.949 60.431 242.036 64.303Q240.122 68.174 238.876 72.268L238.876 72.268L238.876 75.294Q238.876 78.587 236.963 80.723Q235.049 82.859 232.201 82.859ZM285.601 83.037L285.601 83.037Q280.261 83.037 277.012 79.700Q273.764 76.362 273.764 70.132L273.764 70.132Q273.764 65.682 275.500 61.277Q277.235 56.871 280.528 53.311Q283.821 49.751 288.449 47.615Q293.077 45.479 298.862 45.479L298.862 45.479Q304.202 45.479 307.984 47.304Q311.767 49.128 311.767 52.243L311.767 52.243Q311.767 53.044 311.589 54.335Q311.411 55.625 311.144 56.426L311.144 56.426Q310.877 57.138 310.387 57.717Q309.898 58.295 309.097 58.295L309.097 58.295Q308.741 58.295 307.762 58.028L307.762 58.028Q307.406 59.897 307.228 61.677Q307.050 63.457 307.050 65.237L307.050 65.237Q307.050 68.619 308.073 71.245Q309.097 73.870 312.123 74.493L312.123 74.493Q312.924 74.671 313.413 75.027Q313.903 75.383 313.903 76.540L313.903 76.540Q313.903 77.519 313.413 79.032Q312.924 80.545 311.544 81.747Q310.165 82.948 307.584 82.948L307.584 82.948Q304.113 82.948 302.244 80.412Q300.375 77.875 300.375 73.158L300.375 73.158Q297.972 77.519 294.279 80.278Q290.585 83.037 285.601 83.037ZM288.449 73.781L288.449 73.781Q292.009 73.781 294.724 71.556Q297.438 69.331 298.951 65.949L298.951 65.949Q299.930 63.813 300.464 61.277Q300.998 58.740 301.176 56.248L301.176 56.248Q299.663 55.536 297.705 55.091Q295.747 54.646 293.611 54.646L293.611 54.646Q288.182 54.646 284.666 57.850Q281.151 61.054 281.151 65.860L281.151 65.860Q281.151 69.420 283.109 71.601Q285.067 73.781 288.449 73.781ZM326.897 37.647L326.897 37.647Q324.405 37.558 322.892 36.134Q321.379 34.710 321.379 32.129L321.379 32.129Q321.468 29.370 323.248 27.635Q325.028 25.899 327.787 25.988L327.787 25.988Q330.368 26.077 331.837 27.501Q333.305 28.925 333.216 31.506L333.216 31.506Q333.127 34.176 331.436 35.912Q329.745 37.647 326.897 37.647ZM326.986 82.770L326.986 82.770Q324.316 82.770 322.803 81.302Q321.290 79.833 321.290 76.273L321.290 76.273Q321.290 74.226 321.690 72.268Q322.091 70.310 322.625 68.441L322.625 68.441Q323.248 66.483 323.649 64.436Q324.049 62.389 324.049 60.075L324.049 60.075Q324.049 58.473 323.604 57.005Q323.159 55.536 321.646 54.824L321.646 54.824Q320.489 54.201 319.643 53.534Q318.798 52.866 318.798 51.798L318.798 51.798Q318.798 50.552 319.955 49.128Q321.112 47.704 323.025 46.681Q324.939 45.657 326.986 45.657L326.986 45.657Q329.211 45.657 330.234 46.814Q331.258 47.971 331.614 49.751Q331.970 51.531 331.970 53.400L331.970 53.400Q331.970 56.248 331.525 58.963Q331.080 61.677 330.635 63.991L330.635 63.991Q330.279 65.682 330.101 67.106Q329.923 68.530 329.923 69.776L329.923 69.776Q329.923 72.001 330.991 73.114Q332.059 74.226 334.017 75.205L334.017 75.205Q334.818 75.650 334.818 76.540L334.818 76.540Q334.818 77.252 334.106 78.765Q333.394 80.278 331.659 81.524Q329.923 82.770 326.986 82.770Z" />
  </g>
</svg>